name Walk10.mot
datacolumns 19
datarows 12
range 2.72600000 2.73700000
endheader

                time	   L_ground_force_vx	   L_ground_force_vy	   L_ground_force_vz	   L_ground_force_px	   L_ground_force_py	   L_ground_force_pz	   R_ground_force_vx	   R_ground_force_vy	   R_ground_force_vz	   R_ground_force_px	   R_ground_force_py	   R_ground_force_pz	   L_ground_torque_x	   L_ground_torque_y	   L_ground_torque_z	   R_ground_torque_x	   R_ground_torque_y	   R_ground_torque_z	
          2.72600000	         -0.80389853	         66.47509797	         -1.95525124	          0.00075962	          0.00000000	          0.00068719	         -0.00000000	          0.00000000	          0.00000000	          0.00000000	          0.00000000	          0.00000000	          0.00000000	          0.05584349	          0.00000000	          0.00000000	          0.00000000	          0.00000000	
          2.72700000	         -1.67053295	         74.73852291	         -1.85126108	         -0.01234324	          0.00000000	         -0.00142921	         -0.00000000	          0.00000000	          0.00000000	          0.00000000	          0.00000000	          0.00000000	          0.00000000	          0.06361976	          0.00000000	          0.00000000	          0.00000000	          0.00000000	
          2.72800000	         -2.57380804	         83.19062096	         -1.75956351	         -0.02539364	          0.00000000	         -0.00353804	         -0.00000000	          0.00000000	          0.00000000	          0.00000000	          0.00000000	          0.00000000	          0.00000000	          0.07155019	          0.00000000	          0.00000000	          0.00000000	          0.00000000	
          2.72900000	         -3.51402784	         91.81899641	         -1.68114948	         -0.03834923	          0.00000000	         -0.00563261	         -0.00000000	          0.00000000	          0.00000000	          0.00000000	          0.00000000	          0.00000000	          0.00000000	          0.07962239	          0.00000000	          0.00000000	          0.00000000	          0.00000000	
          2.73000000	         -4.49147269	        100.61001716	         -1.61697313	         -0.05116874	          0.00000000	         -0.00770640	         -0.00000000	          0.00000000	          0.00000000	          0.00000000	          0.00000000	          0.00000000	          0.00000000	          0.08782287	          0.00000000	          0.00000000	          0.00000000	          0.00000000	
          2.73100000	         -5.50641235	        109.54881065	         -1.56793584	         -0.06381364	          0.00000000	         -0.00975332	         -0.00000000	          0.00000000	          0.00000000	          0.00000000	          0.00000000	          0.00000000	          0.00000000	          0.09613696	          0.00000000	          0.00000000	          0.00000000	          0.00000000	
          2.73200000	         -6.55912512	        118.61934486	         -1.53486210	         -0.07624904	          0.00000000	         -0.01176788	         -0.00000000	          0.00000000	          0.00000000	          0.00000000	          0.00000000	          0.00000000	          0.00000000	          0.10454890	          0.00000000	          0.00000000	          0.00000000	          0.00000000	
          2.73300000	         -7.64991553	        127.80459733	         -1.51846898	         -0.08844380	          0.00000000	         -0.01374517	         -0.00000000	          0.00000000	          0.00000000	          0.00000000	          0.00000000	          0.00000000	          0.00000000	          0.11304212	          0.00000000	          0.00000000	          0.00000000	          0.00000000	
          2.73400000	         -8.77912763	        137.08681709	         -1.51932984	         -0.10037033	          0.00000000	         -0.01568090	         -0.00000000	          0.00000000	          0.00000000	          0.00000000	          0.00000000	          0.00000000	          0.00000000	          0.12159980	          0.00000000	          0.00000000	          0.00000000	          0.00000000	
          2.73500000	         -9.94715051	        146.44786993	         -1.53783405	         -0.11200434	          0.00000000	         -0.01757130	         -0.00000000	          0.00000000	          0.00000000	          0.00000000	          0.00000000	          0.00000000	          0.00000000	          0.13020559	          0.00000000	          0.00000000	          0.00000000	          0.00000000	
          2.73600000	        -11.15441253	        155.86963621	         -1.57414663	         -0.12332466	          0.00000000	         -0.01941315	         -0.00000000	          0.00000000	          0.00000000	          0.00000000	          0.00000000	          0.00000000	          0.00000000	          0.13884454	          0.00000000	          0.00000000	          0.00000000	          0.00000000	
          2.73700000	        -12.40136288	        165.33441507	         -1.62817282	         -0.13431310	          0.00000000	         -0.02120372	         -0.00000000	          0.00000000	          0.00000000	          0.00000000	          0.00000000	          0.00000000	          0.00000000	          0.14750387	          0.00000000	          0.00000000	          0.00000000	          0.00000000	
